<mxfile host="app.diagrams.net" modified="2022-11-10T07:02:43.954Z" agent="5.0 (Macintosh; Intel Mac OS X 10_15_7) AppleWebKit/537.36 (KHTML, like Gecko) Chrome/106.0.0.0 Safari/537.36" etag="nFliNX7RDU7LAfW5U6X6" version="20.5.3" type="github" pages="2">
  <diagram id="0NRe4tjA-ZCNJuPSjp2_" name="Page-1">
    <mxGraphModel dx="946" dy="646" grid="1" gridSize="10" guides="1" tooltips="1" connect="1" arrows="1" fold="1" page="1" pageScale="1" pageWidth="850" pageHeight="1100" math="0" shadow="0">
      <root>
        <mxCell id="0" />
        <mxCell id="1" parent="0" />
        <mxCell id="0-9RQJnWFYFpvyduJe9J-1" value="Moral Value&amp;nbsp;" style="rounded=0;whiteSpace=wrap;html=1;" parent="1" vertex="1">
          <mxGeometry x="140" y="70" width="120" height="60" as="geometry" />
        </mxCell>
        <mxCell id="0-9RQJnWFYFpvyduJe9J-2" value="" style="endArrow=classic;html=1;rounded=0;" parent="1" edge="1">
          <mxGeometry width="50" height="50" relative="1" as="geometry">
            <mxPoint x="360" y="100" as="sourcePoint" />
            <mxPoint x="280" y="100" as="targetPoint" />
            <Array as="points">
              <mxPoint x="340" y="100" />
              <mxPoint x="320" y="100" />
            </Array>
          </mxGeometry>
        </mxCell>
        <mxCell id="0-9RQJnWFYFpvyduJe9J-4" value="Ethical System" style="shape=process;whiteSpace=wrap;html=1;backgroundOutline=1;" parent="1" vertex="1">
          <mxGeometry x="390" y="70" width="120" height="60" as="geometry" />
        </mxCell>
        <mxCell id="0-9RQJnWFYFpvyduJe9J-5" value="Material World" style="ellipse;whiteSpace=wrap;html=1;aspect=fixed;" parent="1" vertex="1">
          <mxGeometry x="405" y="220" width="90" height="90" as="geometry" />
        </mxCell>
        <mxCell id="0-9RQJnWFYFpvyduJe9J-6" value="" style="endArrow=classic;html=1;rounded=0;" parent="1" edge="1">
          <mxGeometry width="50" height="50" relative="1" as="geometry">
            <mxPoint x="450" y="210" as="sourcePoint" />
            <mxPoint x="450" y="140" as="targetPoint" />
          </mxGeometry>
        </mxCell>
      </root>
    </mxGraphModel>
  </diagram>
  <diagram id="wtWRE2peC2bWAsxvDIrr" name="Page-2">
    <mxGraphModel dx="946" dy="646" grid="1" gridSize="10" guides="1" tooltips="1" connect="1" arrows="1" fold="1" page="1" pageScale="1" pageWidth="850" pageHeight="1100" math="0" shadow="0">
      <root>
        <mxCell id="0" />
        <mxCell id="1" parent="0" />
        <mxCell id="3zTn1NohY-YLb8xO6DWl-1" value="Material World" style="ellipse;whiteSpace=wrap;html=1;aspect=fixed;" vertex="1" parent="1">
          <mxGeometry x="110" y="50" width="90" height="90" as="geometry" />
        </mxCell>
        <mxCell id="3zTn1NohY-YLb8xO6DWl-5" value="" style="endArrow=none;dashed=1;html=1;dashPattern=1 3;strokeWidth=2;rounded=0;" edge="1" parent="1">
          <mxGeometry width="50" height="50" relative="1" as="geometry">
            <mxPoint x="220" y="94.5" as="sourcePoint" />
            <mxPoint x="300" y="94.5" as="targetPoint" />
            <Array as="points">
              <mxPoint x="220" y="94.5" />
            </Array>
          </mxGeometry>
        </mxCell>
        <mxCell id="3zTn1NohY-YLb8xO6DWl-6" value="Zoomed in" style="ellipse;whiteSpace=wrap;html=1;aspect=fixed;" vertex="1" parent="1">
          <mxGeometry x="280" y="30" width="480" height="480" as="geometry" />
        </mxCell>
        <mxCell id="3zTn1NohY-YLb8xO6DWl-7" value="Actor" style="shape=umlActor;verticalLabelPosition=bottom;verticalAlign=top;html=1;outlineConnect=0;" vertex="1" parent="1">
          <mxGeometry x="380" y="160" width="30" height="60" as="geometry" />
        </mxCell>
        <mxCell id="3zTn1NohY-YLb8xO6DWl-9" value="Actor" style="shape=umlActor;verticalLabelPosition=bottom;verticalAlign=top;html=1;outlineConnect=0;" vertex="1" parent="1">
          <mxGeometry x="425" y="310" width="30" height="60" as="geometry" />
        </mxCell>
        <mxCell id="3zTn1NohY-YLb8xO6DWl-10" value="Actor" style="shape=umlActor;verticalLabelPosition=bottom;verticalAlign=top;html=1;outlineConnect=0;" vertex="1" parent="1">
          <mxGeometry x="540" y="150" width="30" height="60" as="geometry" />
        </mxCell>
        <mxCell id="3zTn1NohY-YLb8xO6DWl-11" value="Actor" style="shape=umlActor;verticalLabelPosition=bottom;verticalAlign=top;html=1;outlineConnect=0;" vertex="1" parent="1">
          <mxGeometry x="590" y="300" width="30" height="60" as="geometry" />
        </mxCell>
      </root>
    </mxGraphModel>
  </diagram>
</mxfile>
